<svg width="47" height="48" viewBox="0 0 47 48" fill="none" xmlns="http://www.w3.org/2000/svg">
<path d="M7.35698 41.568L12.9261 0.883573C12.9748 0.456181 13.5431 0.341114 13.7704 0.719191L22.7653 15.9738C22.8303 16.0889 22.8465 16.2204 22.8141 16.3354L17.3261 37.3763C17.2937 37.5078 17.2125 37.6064 17.0826 37.6722L8.00643 42.0447C7.6817 42.2091 7.30827 41.9297 7.35698 41.568Z" fill="#E4E9F2"/>
<path d="M29.6172 39.5291L37.9465 18.5211C37.979 18.4225 38.0602 18.3403 38.1414 18.2746L45.8537 13.9185C46.2271 13.7048 46.6655 14.0828 46.5031 14.4938L34.2446 45.2167C34.1147 45.5619 33.6601 45.6112 33.449 45.3153L29.6659 39.9729C29.5848 39.8414 29.5523 39.6771 29.6172 39.5291Z" fill="#E4E9F2"/>
<path d="M4.95412 2.90503L0.521573 35.7485C0.472864 36.1101 0.830066 36.3896 1.15479 36.2416L7.06486 33.6444C7.21098 33.5786 7.3084 33.4471 7.34087 33.2827L10.4096 10.8282C10.4258 10.7296 10.4096 10.6145 10.3446 10.5323L5.79841 2.74065C5.58734 2.34613 5.01906 2.4612 4.95412 2.90503Z" fill="#E4E9F2"/>
<path d="M19.0636 37.8694L24.5516 16.8121C24.584 16.697 24.6652 16.582 24.7789 16.5327L40.0411 8.13276C40.4146 7.91906 40.8529 8.29714 40.6906 8.70809L25.5745 46.8117C25.4283 47.1569 24.9737 47.2063 24.7626 46.8939L19.1286 38.2475C19.0474 38.1324 19.0312 38.0009 19.0636 37.8694Z" fill="#E4E9F2"/>
</svg>
